inDegrees=no
num_controls=7
num_derivatives=13
num_iterations=144
num_multipliers=7
num_parameters=0
num_slacks=7
num_states=26
objective=0.476953
objective_accelerations=0.044341
objective_balance=0.003616
objective_effort=0.040494
objective_height=0.382842
objective_ligament=0.005661
solver_duration=1964.354285
status=Solve_Succeeded
success=true
DataType=double
version=3
OpenSimVersion=4.5
endheader
time	/jointset/ground_pelvis/pelvis_tilt/value	/jointset/ground_pelvis/pelvis_tx/value	/jointset/ground_pelvis/pelvis_ty/value	/jointset/hip_l/hip_flexion_l/value	/jointset/hip_l/hip_adduction_l/value	/jointset/hip_l/hip_rotation_l/value	/jointset/back/lumbar_extension/value	/jointset/patellofemoral_l/patellar_flexion_l/value	/jointset/knee_l/knee_flexion_l/value	/jointset/knee_l/knee_adduction_l/value	/jointset/knee_l/knee_rotation_l/value	/jointset/ankle_l/ankle_angle_l/value	/jointset/subtalar_l/subtalar_angle_l/value	/jointset/ground_pelvis/pelvis_tilt/speed	/jointset/ground_pelvis/pelvis_tx/speed	/jointset/ground_pelvis/pelvis_ty/speed	/jointset/hip_l/hip_flexion_l/speed	/jointset/hip_l/hip_adduction_l/speed	/jointset/hip_l/hip_rotation_l/speed	/jointset/back/lumbar_extension/speed	/jointset/patellofemoral_l/patellar_flexion_l/speed	/jointset/knee_l/knee_flexion_l/speed	/jointset/knee_l/knee_adduction_l/speed	/jointset/knee_l/knee_rotation_l/speed	/jointset/ankle_l/ankle_angle_l/speed	/jointset/subtalar_l/subtalar_angle_l/speed	/forceset/tau_hip_flexion_l	/forceset/tau_hip_adduction_l	/forceset/tau_hip_rotation_l	/forceset/tau_knee_flexion_l	/forceset/tau_ankle_angle_l	/forceset/tau_subtalar_angle_l	/forceset/tau_lumbar_extension	lambda_cid13_p0	lambda_cid13_p1	lambda_cid13_p2	lambda_cid13_p3	lambda_cid13_p4	lambda_cid13_p5	lambda_cid14_p0	/jointset/ground_pelvis/pelvis_tilt/accel	/jointset/ground_pelvis/pelvis_tx/accel	/jointset/ground_pelvis/pelvis_ty/accel	/jointset/hip_l/hip_flexion_l/accel	/jointset/hip_l/hip_adduction_l/accel	/jointset/hip_l/hip_rotation_l/accel	/jointset/back/lumbar_extension/accel	/jointset/patellofemoral_l/patellar_flexion_l/accel	/jointset/knee_l/knee_flexion_l/accel	/jointset/knee_l/knee_adduction_l/accel	/jointset/knee_l/knee_rotation_l/accel	/jointset/ankle_l/ankle_angle_l/accel	/jointset/subtalar_l/subtalar_angle_l/accel	gamma_cid13_p0	gamma_cid13_p1	gamma_cid13_p2	gamma_cid13_p3	gamma_cid13_p4	gamma_cid13_p5	gamma_cid14_p0
0	-0.03680458812122995	0.05666951626247831	0.9203419092021665	0.3085816938045678	-0.2956348994499724	-0.3014865305597479	-0.3879492264334186	0.2499269421184975	0.2499269421184919	-0.174532876154025	-0.174414246472523	-0.0008036623358878681	0.0004418320259433196	0	0	0	0	0	0	0	0	0	0	0	0	0	0.07101965527130327	-0.04837730521642502	-0.01967725817853597	-0.2417699196141211	0.1874945591376579	-0.01285664837219803	0.003386368309137263	16.86196041551786	0.05090433219725109	2.484935623791791	10.09071344150967	-621.9105103117012	-74.82486689617582	-23.19289786405088	-0.9890810385936107	-2.031212399501401	-0.9255436668086856	9.305182679444446	-0.8394960528425133	3.332976844311708	-7.258186096034697	9.455500889550153	9.455500889550187	1.297372420683779	-0.08872813888635968	1.670950129736012	-0.3330101188206632	3.207909596217197e-09	1.581360098995081e-07	5.900808752262829e-08	-1.281835228694103e-08	1.282393537991947e-07	9.057804384892327e-09	4.768901022626525e-09
0.01	-0.03685045084968525	0.05656994951859468	0.9202966829192532	0.3090348752818194	-0.2956770376598822	-0.3013190729459219	-0.3883107007032605	0.2503904481735063	0.2503904481734967	-0.1744716692182862	-0.1744151100005816	-0.0007214543302458852	0.0004245387875349377	-0.009143022911240797	-0.01973224971927955	-0.009006789238737654	0.0901297042138542	-0.008386867116670974	0.03333790688564642	-0.07179683907260903	0.09228717090693679	0.09228717090693647	0.01217727241212799	-0.0001676786750719343	0.01648652078236814	-0.003399569211760508	0.06797407671090419	-0.05746408192523568	-0.01958150477634946	-0.2424353929451698	0.1881708566310679	-0.003508713958654252	0.007269745903630156	17.33068411776458	-3.980409693017075	3.001346707409386	7.64690891680707	-624.7786239695043	-83.05485180221788	-23.19826384048182	-0.8724931703140004	-1.917068963576614	-0.8824508029510535	8.790869354062123	-0.8322002629113866	3.311154315815611	-7.065730578271304	9.053218223410026	9.053218223409903	1.168320455779543	0.01997109691911921	1.644245357194202	-0.3346006628906602	-3.131331926766209e-08	1.43468206272758e-07	1.417201136928587e-07	1.915299639391353e-08	-3.251096698621722e-09	-4.977299042146151e-08	-6.215987354094089e-09
0.02	-0.03698685985784327	0.05627849273643074	0.9201625478938434	0.3103741548135524	-0.2958018281853248	-0.3008228449222151	-0.3893752029169077	0.2517644045440087	0.2517644045440086	-0.1742906063975629	-0.1744174985496486	-0.0004730326558388803	0.000375015788901558	-0.0181092559394442	-0.03837800765606167	-0.01778174849926024	0.1772196108959553	-0.01653046310662073	0.06575408197627203	-0.1406055887610886	0.1820900630996576	0.1820900630996553	0.0239711769963445	-0.0003050042006748807	0.03324273375301414	-0.0064459520449987	0.06492849815054594	-0.06655085863405184	-0.01948575137411129	-0.2431008662762057	0.1888471541244821	0.005839220454884682	0.01115312349815449	17.87240789918901	-8.02329098545556	3.51821454470792	5.087472771741482	-626.5566900365382	-91.1938579157308	-23.21403619988411	-0.9537230619859783	-1.813914043002051	-0.8791776711656745	8.697223173093843	-0.7908418274982643	3.148630485307538	-6.660568219208719	8.958645146706994	8.958645146706688	1.220698855101505	-0.08265750899258194	1.724888567391434	-0.2623728431162464	-6.583454813154138e-08	1.28800402646008e-07	2.244321398630892e-07	5.11243450747681e-08	-1.347415471964382e-07	-1.086037852278153e-07	-1.72008757308147e-08
0.03	-0.0372118347495887	0.05580523441675277	0.9199415557713994	0.3125699666612554	-0.2960065995823321	-0.3000078391392553	-0.3911127628056723	0.2540239407204717	0.2540239407204709	-0.1739933059601007	-0.1744217271978938	-5.681754998699929e-05	0.0002966538254213741	-0.02681373118166059	-0.05617023275060549	-0.02640081678889945	0.2614922997781239	-0.02436370955339675	0.09708941608254315	-0.2064233967785905	0.2693888816992437	0.2693888816992434	0.03542965079582498	-0.0005258780838345769	0.0499346439823713	-0.009186583863989274	0.05713693983645916	-0.05995183875125721	-0.01841202000279957	-0.235466325669473	0.1807182121511726	0.004893740193817588	0.01776272090180191	15.16948462360306	-7.234632130037094	3.501251063987945	6.044926072066313	-628.0665049212338	-88.577504851315	-23.23954811541087	-0.8180175791654798	-1.746352859662688	-0.8509200073534461	8.224713047608292	-0.7705989316538083	3.102307677040408	-6.469938260787954	8.551260127145367	8.551260127145925	1.099576875804809	0.01045962991794771	1.631495391759598	-0.2739758021733397	-8.742094066841061e-08	1.147498286286167e-07	2.833524467904609e-07	7.091328932167062e-08	-2.239131877398345e-07	-1.478464650091623e-07	-2.492529188074745e-08
0.04	-0.03752169595852656	0.0551571586227325	0.9196348432461607	0.3155949896581415	-0.2962879100194845	-0.2988842154544814	-0.3934940110081668	0.2571436170650439	0.2571436170650433	-0.1735831897379559	-0.1744277121933884	0.0005243472863686859	0.0001920720535746946	-0.03508651937689565	-0.07334150252452058	-0.03492582905816365	0.343061840733485	-0.03183827113563549	0.1274776623389549	-0.2693432515067533	0.3541180967212684	0.3541180967212748	0.04653433393264618	-0.0006562736511705068	0.06623267985379683	-0.01168991371829508	0.04934538152236642	-0.0533528188684588	-0.01733828863150451	-0.2278317850627389	0.1725892701778658	0.003948259932755489	0.02437231830544262	12.53431284414752	-6.45486649150037	3.482313661205032	6.885946045096032	-628.5762234361808	-85.87407063203868	-23.27392578515183	-0.8673856525895612	-1.689722978876438	-0.8603664670906731	8.156593587732349	-0.7191048545907972	2.959212915335648	-6.080977561340797	8.444724431194764	8.444724431195368	1.149940722569675	-0.06456184582784384	1.64611369580496	-0.2149124501793338	-1.087406355490528e-07	1.007119809949236e-07	3.417822028056087e-07	9.045104997199682e-08	-3.122122755006656e-07	-1.866852661301998e-07	-3.258248179920004e-08
0.05	-0.03791257491194844	0.05434070033425865	0.9192431496822251	0.3194226774160993	-0.2966421010155552	-0.2974618444307859	-0.3964898798142132	0.2610981120248458	0.2610981120248417	-0.1730637403249861	-0.1744349738183653	0.0012668600325142	6.383028831402591e-05	-0.04303221065573862	-0.08982326771284467	-0.04341141203409375	0.4220215374150625	-0.03893736232523896	0.1568310903424074	-0.3293716873515535	0.4363596189344329	0.436359618934459	0.05728218270193167	-0.00078567538541518	0.08222951322055916	-0.01390794839679376	0.04280324042734215	-0.05153912724378746	-0.01653901904189316	-0.2233588211717498	0.1675760625088272	0.006006488934792362	0.03017545245055389	11.01219373866112	-7.106850680833054	3.614365243122662	6.731802383419385	-629.2102117283155	-86.33256363942338	-23.31605306777173	-0.7496066263084284	-1.608351922463135	-0.8424966146061084	7.697519668454216	-0.6959839407626051	2.898541594759525	-5.894953243185137	8.05068124913431	8.050681249136842	1.026252195459494	0.01448369122354077	1.570411971316099	-0.2177300752993519	-1.242464757435148e-07	6.220508958975072e-08	3.851284741641329e-07	1.026621214267029e-07	-3.801747053520388e-07	-2.212323299703291e-07	-4.086095570459802e-08
